<svg xmlns="http://www.w3.org/2000/svg" viewBox="0 0 256 256" width="256" height="256">
  <!-- A gently tapered British nonic glass, with a rounded lip and a modest creamy head. -->
  <defs><linearGradient id="ale" x1="0" x2="1"><stop stop-color="#c0a068"/><stop offset=".45" stop-color="#d6b475"/><stop offset="1" stop-color="#b58b49"/></linearGradient></defs>
  <g stroke="#284830" stroke-width="8" stroke-linejoin="round" stroke-linecap="round">
    <path d="M67 42q61-13 122 0l-5 39q12 21-2 39l-15 97q-1 14-39 14t-39-14l-15-97q-14-18-2-39Z" fill="url(#ale)"/>
    <path d="M68 42q60-13 120 0l-4 30q-58 12-112 0Z" fill="#f8f0d0" stroke="none"/>
    <path d="M67 42q61-13 122 0l-5 39q12 21-2 39l-15 97q-1 14-39 14t-39-14l-15-97q-14-18-2-39Z" fill="none"/>
    <ellipse cx="128" cy="41" rx="61" ry="13" fill="#f8f0d0"/>
    <path d="M91 88q-8 13 1 27l12 83" fill="none" stroke="#f8f0d0" stroke-width="9"/>
    <path d="M100 215q28 8 56 0" fill="none" stroke="#f8f0d0" stroke-width="6"/>
  </g>
</svg>
