<svg xmlns="http://www.w3.org/2000/svg" viewBox="0 0 490 330" width="490" height="330" role="img" aria-label="Line drawing of an English Longhorn cow wearing a GPS tracking collar">
  <g fill="none" stroke="currentColor" stroke-width="3.2" stroke-linecap="round" stroke-linejoin="round">

    <!-- tail, set at the tail head -->
    <path d="M 70 128 C 58 150, 50 182, 52 210"/>
    <path d="M 52 210 C 54 222, 48 234, 40 240" stroke-width="5.5"/>

    <!-- far legs -->
    <path d="M 212 230 C 210 246, 212 260, 209 276 C 208 285, 208 291, 208 295 L 220 295 C 220 289, 220 283, 221 274 C 223 258, 225 242, 226 228"/>
    <path d="M 122 210 C 114 228, 122 242, 117 258 C 114 270, 115 284, 115 295 L 127 295 C 127 285, 127 273, 131 261 C 136 243, 128 229, 135 206"/>
    <path d="M 208 295 L 220 295" stroke-width="5"/>
    <path d="M 115 295 L 127 295" stroke-width="5"/>

    <!-- torso: withers, dipped back, hook bones, dropped rump, deep brisket -->
    <path d="M 274 112 C 252 126, 236 134, 218 132 C 186 128, 148 122, 112 116 C 96 114, 80 118, 70 128 C 58 140, 54 162, 58 184 C 62 202, 72 214, 86 219 C 100 224, 118 216, 132 202 C 162 222, 200 232, 232 234 C 252 235, 268 232, 278 224 C 288 216, 294 202, 294 184 C 294 156, 286 128, 274 112 Z"/>

    <!-- shoulder and haunch definition -->
    <path d="M 100 128 C 86 152, 84 184, 94 212" stroke-width="2.4"/>
    <path d="M 276 124 C 266 146, 266 172, 274 196" stroke-width="2.4"/>

    <!-- near legs -->
    <path d="M 244 232 C 242 252, 244 268, 241 282 C 240 291, 240 297, 240 301 L 260 301 C 260 295, 260 289, 261 280 C 263 260, 264 244, 265 228"/>
    <path d="M 90 219 C 80 238, 90 252, 84 270 C 80 283, 82 295, 82 301 L 102 301 C 102 293, 101 280, 107 266 C 114 248, 104 232, 112 212"/>
    <path d="M 240 301 L 260 301" stroke-width="6"/>
    <path d="M 82 301 L 102 301" stroke-width="6"/>

    <!-- neck -->
    <path d="M 274 112 C 288 106, 306 98, 320 92"/>
    <path d="M 330 168 C 320 190, 306 200, 294 192"/>

    <!-- horns -->
    <path d="M 338 74 C 306 62, 268 54, 242 38 C 236 34, 230 28, 226 20 C 231 31, 239 40, 247 47 C 274 68, 308 84, 326 94 Z"/>
    <path d="M 362 74 C 394 62, 432 54, 458 38 C 464 34, 470 28, 474 20 C 469 31, 461 40, 453 47 C 426 68, 392 84, 374 94 Z"/>

    <!-- ears -->
    <path d="M 322 96 C 308 92, 294 96, 286 108 C 296 116, 312 114, 322 108 Z"/>
    <path d="M 378 96 C 392 92, 406 96, 414 108 C 404 116, 388 114, 378 108 Z"/>

    <!-- head -->
    <path d="M 350 70 C 366 70, 376 78, 378 92 C 380 112, 376 128, 371 144 C 367 158, 365 168, 360 174 C 355 180, 345 180, 340 174 C 335 168, 333 158, 329 144 C 324 128, 320 112, 322 92 C 324 78, 334 70, 350 70 Z"/>
    <path d="M 332 156 C 343 162, 357 162, 368 156" stroke-width="2.4"/>

    <!-- collar -->
    <path d="M 306 156 C 310 186, 330 200, 356 190" stroke-width="7"/>
    <rect x="322" y="194" width="22" height="18" rx="5"/>
    <path d="M 328 203 L 338 203" stroke-width="2.4"/>
  </g>

  <g fill="currentColor">
    <ellipse cx="334" cy="104" rx="4.6" ry="3.9"/>
    <ellipse cx="366" cy="104" rx="4.6" ry="3.9"/>
    <ellipse cx="343" cy="166" rx="3" ry="2"/>
    <ellipse cx="357" cy="166" rx="3" ry="2"/>
  </g>
</svg>
